<?xml version="1.0" encoding="UTF-8"?>
<svg xmlns="http://www.w3.org/2000/svg" viewBox="0 0 256 256" width="256" height="256">
  <defs>
    <linearGradient id="bg" x1="0" y1="0" x2="0" y2="1">
      <stop offset="0%" stop-color="#3f6e55"/>
      <stop offset="100%" stop-color="#294c39"/>
    </linearGradient>
    <radialGradient id="gloss" cx="22%" cy="22%" r="70%">
      <stop offset="0%" stop-color="#ffffff" stop-opacity="0.18"/>
      <stop offset="60%" stop-color="#ffffff" stop-opacity="0"/>
    </radialGradient>
    <filter id="softShadow" x="-20%" y="-20%" width="140%" height="140%">
      <feGaussianBlur in="SourceAlpha" stdDeviation="2.6"/>
      <feOffset dx="2" dy="3.5"/>
      <feComponentTransfer><feFuncA type="linear" slope="0.32"/></feComponentTransfer>
      <feMerge>
        <feMergeNode/>
        <feMergeNode in="SourceGraphic"/>
      </feMerge>
    </filter>
  </defs>
  <rect width="256" height="256" rx="43.52" fill="url(#bg)"/>
  <rect width="256" height="256" rx="43.52" fill="url(#gloss)"/>
  <g filter="url(#softShadow)">
    <path
      d="M 115.44 116.22 L 116.60 115.48 L 117.88 114.91 L 119.24 114.51 L 120.67 114.32 L 122.14 114.32 L 123.62 114.54 L 125.08 114.98 L 126.48 115.62 L 127.79 116.48 L 128.99 117.53 L 130.05 118.76 L 130.93 120.15 L 131.62 121.68 L 132.09 123.31 L 132.33 125.03 L 132.32 126.79 L 132.06 128.56 L 131.54 130.30 L 130.76 131.98 L 129.74 133.55 L 128.48 134.99 L 127.01 136.26 L 125.34 137.32 L 123.51 138.14 L 121.55 138.71 L 119.50 138.99 L 117.39 138.98 L 115.27 138.67 L 113.18 138.04 L 111.17 137.11 L 109.28 135.89 L 107.56 134.38 L 106.05 132.62 L 104.78 130.62 L 103.79 128.43 L 103.11 126.08 L 102.77 123.62 L 102.78 121.09 L 103.16 118.55 L 103.91 116.05 L 105.02 113.64 L 106.49 111.38 L 108.29 109.32 L 110.41 107.50 L 112.80 105.98 L 115.42 104.80 L 118.24 103.99 L 121.19 103.58 L 124.21 103.59 L 127.25 104.04 L 130.25 104.94 L 133.14 106.27 L 135.85 108.03 L 138.32 110.19 L 140.49 112.73 L 142.31 115.59 L 143.73 118.74 L 144.71 122.11 L 145.20 125.64 L 145.18 129.27 L 144.64 132.91 L 143.57 136.50 L 141.97 139.96 L 139.86 143.20 L 137.27 146.16 L 134.23 148.77 L 130.80 150.95 L 127.03 152.65 L 123.00 153.82 L 118.76 154.40 L 114.42 154.38 L 110.06 153.73 L 105.76 152.45 L 101.62 150.54 L 97.73 148.01 L 94.18 144.91 L 91.06 141.27 L 88.44 137.16 L 86.41 132.65 L 85.01 127.81 L 84.31 122.74 L 84.33 117.54 L 85.11 112.31 L 86.65 107.16 L 88.94 102.19 L 91.97 97.54 L 95.68 93.28 L 100.04 89.55 L 104.96 86.41 L 110.37 83.97 L 116.17 82.30 L 122.24 81.46 L 128.47 81.49 L 134.74 82.42 L 140.91 84.26 L 146.85 87.01 L 152.43 90.63 L 157.53 95.09 L 162.01 100.31 L 165.76 106.21 L 168.68 112.69 L 170.68 119.63 L 171.69 126.90 L 171.66 134.37 L 170.54 141.88 L 168.33 149.27 L 165.04 156.39 L 160.70 163.07 L 155.36 169.18 L 149.11 174.54"
      fill="none"
      stroke="#f5e2bf"
      stroke-width="12.29"
      stroke-linecap="round"
      stroke-linejoin="round"
    />
    <circle cx="115.44" cy="116.22" r="9.52" fill="#f5e2bf"/>
  </g>
</svg>
